<svg xmlns="http://www.w3.org/2000/svg" x="0px" y="0px"
width="50" height="50"
viewBox="0 0 172 172"
style=" fill:#000000;"><g fill="none" fill-rule="nonzero" stroke="none" stroke-width="1" stroke-linecap="butt" stroke-linejoin="miter" stroke-miterlimit="10" stroke-dasharray="" stroke-dashoffset="0" font-family="none" font-weight="none" font-size="none" text-anchor="none" style="mix-blend-mode: normal"><path d="M0,172v-172h172v172z" fill="none"></path><g fill="#ff1800"><path d="M86,6.88c-43.62264,0 -79.12,35.49736 -79.12,79.12c0,43.62264 35.49736,79.12 79.12,79.12c43.62264,0 79.12,-35.49736 79.12,-79.12c0,-43.62264 -35.49736,-79.12 -79.12,-79.12zM115.9624,111.0776c1.3416,1.3416 1.3416,3.5432 0,4.8848c-0.688,0.6536 -1.548,0.9976 -2.4424,0.9976c-0.8944,0 -1.7544,-0.344 -2.4424,-0.9976l-25.0776,-25.0776l-25.0776,25.0776c-0.688,0.6536 -1.548,0.9976 -2.4424,0.9976c-0.8944,0 -1.7544,-0.344 -2.4424,-0.9976c-1.3416,-1.3416 -1.3416,-3.5432 0,-4.8848l25.0776,-25.0776l-25.0776,-25.0776c-1.3416,-1.3416 -1.3416,-3.5432 0,-4.8848c1.3416,-1.3416 3.5432,-1.3416 4.8848,0l25.0776,25.0776l25.0776,-25.0776c1.3416,-1.3416 3.5432,-1.3416 4.8848,0c1.3416,1.3416 1.3416,3.5432 0,4.8848l-25.0776,25.0776z"></path></g></g></svg>