<svg xmlns="http://www.w3.org/2000/svg" x="0px" y="0px"
width="50" height="50"
viewBox="0 0 172 172"
style=" fill:#000000;"><g fill="none" fill-rule="nonzero" stroke="none" stroke-width="1" stroke-linecap="butt" stroke-linejoin="miter" stroke-miterlimit="10" stroke-dasharray="" stroke-dashoffset="0" font-family="none" font-weight="none" font-size="none" text-anchor="none" style="mix-blend-mode: normal"><path d="M0,172v-172h172v172z" fill="none"></path><g fill="#000000"><path d="M160.21531,11.78469c-3.26531,-3.26531 -7.55188,-4.90469 -11.83844,-4.90469c-4.28656,0 -8.57313,1.63938 -11.83844,4.90469c0,0 -0.24187,0.22844 -0.55094,0.55094c-0.02687,0.02687 -0.06719,0.04031 -0.09406,0.06719l-121.09875,121.08531c-0.41656,0.43 -0.72562,0.95406 -0.88687,1.54531l-6.90688,25.75969c-0.3225,1.1825 0.01344,2.44562 0.88688,3.31906c0.65844,0.65844 1.53187,1.00781 2.43219,1.00781c0.29563,0 0.59125,-0.04031 0.88688,-0.12094l25.75969,-6.90688c0.59125,-0.16125 1.11531,-0.47031 1.54531,-0.90031l121.08531,-121.07188c0.04031,-0.04031 0.05375,-0.09406 0.08063,-0.13437c0.30906,-0.30906 0.52406,-0.52406 0.52406,-0.52406c6.5575,-6.54406 6.5575,-17.14625 0.01344,-23.67688zM155.35094,16.64906c3.84313,3.84312 3.84313,10.105 0,13.94812c-1.14219,1.12875 -2.10969,2.10969 -2.94281,2.94281l-13.94813,-13.94812c1.58563,-1.58563 2.94281,-2.94281 2.94281,-2.94281c1.85437,-1.86781 4.34031,-2.88906 6.97406,-2.88906c2.63375,0 5.10625,1.03469 6.97406,2.88906zM19.28281,141.56406l11.15312,11.15312l-15.25156,4.09844z"></path></g></g></svg>