<svg xmlns="http://www.w3.org/2000/svg" x="0px" y="0px"
width="64" height="64"
viewBox="0 0 172 172"
style=" fill:#000000;"><g fill="none" fill-rule="nonzero" stroke="none" stroke-width="1" stroke-linecap="butt" stroke-linejoin="miter" stroke-miterlimit="10" stroke-dasharray="" stroke-dashoffset="0" font-family="none" font-weight="none" font-size="none" text-anchor="none" style="mix-blend-mode: normal"><path d="M0,172v-172h172v172z" fill="none"></path><g fill="#000000"><path d="M64.5,10.75c-1.48427,0 -2.6875,1.20323 -2.6875,2.6875v16.125c0,1.48427 1.20323,2.6875 2.6875,2.6875c1.48427,0 2.6875,-1.20323 2.6875,-2.6875v-13.4375h8.0625v13.4375c0,1.48427 1.20323,2.6875 2.6875,2.6875h16.125c1.48427,0 2.6875,-1.20323 2.6875,-2.6875v-13.4375h8.0625v19.79407c-1.66091,0.80196 -3.55796,0.96814 -5.33301,0.46716c-1.18419,-0.33487 -2.44453,0.17737 -3.05935,1.2434c-0.61483,1.06603 -0.42704,2.41346 0.45584,3.27076c1.97404,1.90193 2.77608,4.71665 2.10103,7.37343c-0.67505,2.65678 -2.72342,4.74725 -5.36593,5.47618h-26.42358v-13.4375c0,-1.48427 -1.20323,-2.6875 -2.6875,-2.6875c-1.48427,0 -2.6875,1.20323 -2.6875,2.6875v13.4375h-18.8125c-1.48427,0 -2.6875,1.20323 -2.6875,2.6875v40.3125h-18.8125c-1.48427,0 -2.6875,1.20323 -2.6875,2.6875v32.25c0,1.48427 1.20323,2.6875 2.6875,2.6875c1.48427,0 2.6875,-1.20323 2.6875,-2.6875v-29.5625h8.0625v13.4375c0,1.48427 1.20323,2.6875 2.6875,2.6875h16.125c1.48427,0 2.6875,-1.20323 2.6875,-2.6875v-13.4375h8.0625v37.625h-53.75c-1.48427,0 -2.6875,1.20323 -2.6875,2.6875v10.75c0,1.48427 1.20323,2.6875 2.6875,2.6875h5.375v8.0625c0,1.48427 1.20323,2.6875 2.6875,2.6875h10.75c1.48427,0 2.6875,-1.20323 2.6875,-2.6875v-8.0625h112.875v8.0625c0,1.48427 1.20323,2.6875 2.6875,2.6875h10.75c1.48427,0 2.6875,-1.20323 2.6875,-2.6875v-8.0625h5.375c1.48427,0 2.6875,-1.20323 2.6875,-2.6875c0,-1.48427 -1.20323,-2.6875 -2.6875,-2.6875h-153.1875v-5.375h153.1875c1.48427,0 2.6875,-1.20323 2.6875,-2.6875c0,-1.48427 -1.20323,-2.6875 -2.6875,-2.6875h-10.75v-40.3125c0,-1.48427 -1.20323,-2.6875 -2.6875,-2.6875h-18.8125v-4.92883c0.73172,-2.6405 2.82268,-4.68618 5.47857,-5.35991c2.65589,-0.67374 5.46913,0.12786 7.37104,2.10027c0.85658,0.89124 2.21063,1.08324 3.28121,0.46527c1.07058,-0.61798 1.58155,-1.88653 1.2382,-3.07403c-0.76382,-2.67221 -0.0191,-5.54849 1.94557,-7.51425c1.96467,-1.96576 4.84054,-2.71207 7.51317,-1.94974c1.18515,0.33882 2.44885,-0.17203 3.06561,-1.23926c0.61676,-1.06723 0.42844,-2.41721 -0.45684,-3.2749c-1.99564,-1.9343 -2.7869,-4.79785 -2.06755,-7.48237c0.71936,-2.68452 2.83645,-4.76873 5.5319,-5.44598c1.19934,-0.29688 2.04174,-1.37323 2.04174,-2.60876c0,-1.23553 -0.8424,-2.31189 -2.04174,-2.60876c-2.69545,-0.67725 -4.81254,-2.76146 -5.5319,-5.44598c-0.71936,-2.68452 0.0719,-5.54807 2.06755,-7.48237c0.71848,-0.66123 1.02195,-1.66003 0.79277,-2.60919c-0.22919,-0.94916 -0.95499,-1.69943 -1.89604,-1.95995c-0.94105,-0.26052 -1.94936,0.00969 -2.63403,0.70586c-2.65174,2.57939 -4.08779,6.16066 -3.95276,9.85752c0.13503,3.69685 1.82853,7.16382 4.66138,9.54288c-4.21546,3.55474 -5.7698,9.35944 -3.89478,14.54504c-5.43389,0.96785 -9.68767,5.22163 -10.65552,10.65552c-5.1856,-1.87503 -10.99031,-0.32068 -14.54504,3.89478c-3.55474,-4.21546 -9.35944,-5.7698 -14.54504,-3.89478c-0.96785,-5.43389 -5.22163,-9.68767 -10.65552,-10.65552c1.87503,-5.1856 0.32068,-10.99031 -3.89478,-14.54504c4.21546,-3.55474 5.7698,-9.35944 3.89478,-14.54504c5.43389,-0.96785 9.68767,-5.22163 10.65552,-10.65552c5.1856,1.87503 10.99031,0.32068 14.54504,-3.89478c3.55474,4.21546 9.35944,5.7698 14.54504,3.89478c0.46023,2.65406 1.73739,5.09828 3.65332,6.9917c0.67546,0.6955 1.67315,0.97328 2.61084,0.72691c0.93769,-0.24636 1.67,-0.97867 1.91636,-1.91636c0.24636,-0.93769 -0.03142,-1.93539 -0.72691,-2.61084c-1.98657,-1.95852 -2.73312,-4.85191 -1.94214,-7.5271c0.34335,-1.1875 -0.16762,-2.45606 -1.2382,-3.07403c-1.07058,-0.61798 -2.42463,-0.42598 -3.28121,0.46527c-1.9306,1.99749 -4.79168,2.79259 -7.47609,2.07762c-2.6844,-0.71497 -4.77097,-2.82783 -5.45226,-5.52098c-0.29688,-1.19934 -1.37323,-2.04174 -2.60876,-2.04174c-1.23553,0 -2.31189,0.8424 -2.60876,2.04174c-0.67573,2.69661 -2.76,4.81509 -5.44524,5.53465c-2.68524,0.71955 -5.54954,-0.07289 -7.4831,-2.07029c-0.85782,-0.88547 -2.20809,-1.07373 -3.27539,-0.45667v-10.41931c0,-1.48427 -1.20323,-2.6875 -2.6875,-2.6875zM80.625,16.125h10.75v10.75h-10.75zM129.80835,34.95849c-7.7125,-0.28983 -14.98863,3.57649 -19.06459,10.13036c-4.07596,6.55387 -4.32632,14.78964 -0.65598,21.57899c0.72333,1.27167 2.33097,1.73116 3.61707,1.03381c1.2861,-0.69735 1.77814,-2.29533 1.10705,-3.59533c-3.80636,-7.04309 -1.8689,-15.81234 4.55047,-20.59619c6.41937,-4.78385 15.37652,-4.13348 21.0375,1.5275c5.66099,5.66099 6.31135,14.61813 1.5275,21.0375c-4.78385,6.41937 -13.5531,8.35683 -20.59619,4.55047c-1.29739,-0.65166 -2.8778,-0.15544 -3.56984,1.12087c-0.69204,1.27631 -0.24565,2.87151 1.00832,3.60325c7.79921,4.2232 17.39134,3.22381 24.15248,-2.51642c6.76114,-5.74023 9.30356,-15.04312 6.4017,-23.42419c-2.90186,-8.38107 -10.65241,-14.12012 -19.51548,-14.45062zM136.86304,48.41174c-0.63813,0.03993 -1.24113,0.30607 -1.70068,0.75061l-8.84985,8.84985l-3.47485,-3.47485c-1.05378,-1.02337 -2.73399,-1.01107 -3.77267,0.02762c-1.03869,1.03869 -1.05099,2.71889 -0.02762,3.77267l5.375,5.375c1.04949,1.04926 2.7508,1.04926 3.80029,0l10.75,-10.75c0.77149,-0.79744 0.97361,-1.98703 0.50879,-2.99453c-0.46482,-1.0075 -1.50102,-1.62578 -2.6084,-1.55638zM45.6875,59.125h8.0625v13.4375c0,1.48427 1.20323,2.6875 2.6875,2.6875h16.125c1.48427,0 2.6875,-1.20323 2.6875,-2.6875v-13.4375h8.0625v37.625h-37.625zM59.125,59.125h10.75v10.75h-10.75zM88.6875,59.125h4.92358c2.61525,0.70168 4.65186,2.75433 5.33301,5.375c0.7418,2.68389 -0.05293,5.55825 -2.06811,7.47986c-0.88879,0.8562 -1.08023,2.20767 -0.4642,3.27703c0.61603,1.06936 1.88118,1.58173 3.06772,1.24238c2.67312,-0.76289 5.54973,-0.01704 7.51537,1.94861c1.96565,1.96565 2.71151,4.84226 1.94861,7.51537c-0.34335,1.1875 0.16762,2.45605 1.2382,3.07403c1.07058,0.61798 2.42463,0.42598 3.28121,-0.46527c1.90042,-1.97256 4.71212,-2.77553 7.36762,-2.10406c2.65551,0.67147 4.74759,2.71441 5.48198,5.3532v4.92883h-37.625zM37.625,102.125h10.75v10.75h-10.75zM67.1875,102.125h8.0625v13.4375c0,1.48427 1.20323,2.6875 2.6875,2.6875h16.125c1.48427,0 2.6875,-1.20323 2.6875,-2.6875v-13.4375h8.0625v37.625h-37.625zM80.625,102.125h10.75v10.75h-10.75zM110.1875,102.125h8.0625v13.4375c0,1.48427 1.20323,2.6875 2.6875,2.6875h16.125c1.48427,0 2.6875,-1.20323 2.6875,-2.6875v-5.375c0,-1.48427 -1.20323,-2.6875 -2.6875,-2.6875c-1.48427,0 -2.6875,1.20323 -2.6875,2.6875v2.6875h-10.75v-10.75h24.1875v37.625h-37.625zM18.8125,155.875h5.375v5.375h-5.375zM147.8125,155.875h5.375v5.375h-5.375z"></path></g></g></svg>