<svg xmlns="http://www.w3.org/2000/svg" x="0px" y="0px"
width="80" height="80"
viewBox="0 0 172 172"
style=" fill:#000000;"><g fill="none" fill-rule="nonzero" stroke="none" stroke-width="1" stroke-linecap="butt" stroke-linejoin="miter" stroke-miterlimit="10" stroke-dasharray="" stroke-dashoffset="0" font-family="none" font-weight="none" font-size="none" text-anchor="none" style="mix-blend-mode: normal"><path d="M0,172v-172h172v172z" fill="none"></path><g><path d="M15.05,32.25h141.9v124.7h-141.9z" fill="#ff7a00"></path><path d="M154.8,34.4v120.4h-137.6v-120.4h137.6M159.1,30.1h-146.2v129h146.2v-129z" fill="#7a4302"></path><path d="M10.75,15.05h150.5v17.2h-150.5z" fill="#ff7a00"></path><path d="M159.1,17.2v12.9h-146.2v-12.9h146.2M163.4,12.9h-154.8v21.5h154.8v-21.5z" fill="#7a4302"></path><g fill="#7a4302"><path d="M103.2,47.3h-17.2h-17.2c-2.3736,0 -4.3,1.9264 -4.3,4.3c0,2.3736 1.9264,4.3 4.3,4.3h17.2h17.2c2.3736,0 4.3,-1.9264 4.3,-4.3c0,-2.3736 -1.9264,-4.3 -4.3,-4.3z"></path></g></g></g></svg>