<?xml version="1.0" standalone="no"?>
<!DOCTYPE svg PUBLIC "-//W3C//DTD SVG 20010904//EN"
 "http://www.w3.org/TR/2001/REC-SVG-20010904/DTD/svg10.dtd">
<svg version="1.0" xmlns="http://www.w3.org/2000/svg"
 width="900.000000pt" height="902.000000pt" viewBox="0 0 900.000000 902.000000"
 preserveAspectRatio="xMidYMid meet">

<g transform="translate(0.000000,902.000000) scale(0.100000,-0.100000)"
fill="#ffffff" stroke="none">
<path d="M4105 8989 c-281 -46 -341 -69 -453 -177 -108 -105 -120 -148 -132
-511 -5 -145 -10 -265 -12 -266 -2 -2 -75 -29 -163 -60 -197 -70 -291 -108
-466 -191 -75 -35 -146 -64 -157 -64 -13 0 -68 44 -137 108 -222 205 -269 243
-344 280 -73 36 -77 37 -191 37 l-117 0 -85 -42 c-148 -74 -325 -210 -514
-398 -185 -184 -309 -332 -392 -472 -72 -120 -86 -172 -80 -297 7 -157 33
-200 267 -451 62 -66 125 -136 141 -156 l29 -35 -36 -80 c-117 -261 -206 -475
-246 -589 l-45 -130 -273 -5 c-251 -5 -279 -7 -334 -28 -164 -61 -258 -180
-310 -392 -41 -171 -58 -391 -52 -655 11 -425 55 -601 184 -736 121 -127 166
-140 516 -148 l269 -6 68 -185 c61 -168 98 -255 219 -524 36 -81 38 -91 25
-110 -8 -12 -70 -79 -137 -151 -156 -165 -209 -231 -249 -308 -43 -84 -51
-211 -19 -314 54 -181 324 -519 610 -766 266 -230 396 -297 570 -297 138 1
210 37 383 195 205 187 263 235 280 235 10 0 80 -29 155 -64 227 -105 434
-187 608 -243 l30 -10 6 -274 c5 -219 9 -285 23 -329 45 -144 180 -262 351
-305 195 -49 526 -81 720 -70 232 13 487 55 583 96 68 29 146 93 196 160 63
84 75 147 89 468 l12 264 30 10 c201 63 418 149 638 251 54 25 107 46 117 46
20 0 73 -46 250 -215 112 -106 192 -165 262 -192 66 -25 247 -23 315 4 311
124 881 689 1005 997 29 73 36 225 14 294 -26 76 -85 160 -198 283 -154 164
-218 241 -218 259 0 9 42 112 94 230 51 118 122 293 156 387 l63 173 96 0
c165 1 444 20 499 34 115 31 218 124 278 250 118 249 141 945 43 1314 -27 102
-49 141 -125 222 -121 127 -179 143 -570 156 l-220 7 -23 66 c-64 182 -128
343 -202 506 -45 99 -85 190 -90 202 -7 19 5 37 89 128 296 322 315 349 334
484 20 143 -9 243 -121 411 -177 267 -548 628 -790 769 -112 66 -180 84 -296
79 -155 -6 -204 -36 -510 -320 -64 -60 -124 -108 -134 -108 -11 0 -81 29 -157
64 -208 95 -293 130 -474 195 l-165 59 -6 269 c-7 306 -18 362 -88 451 -134
169 -268 213 -742 247 -283 20 -332 18 -544 -16z m570 -329 c232 -19 390 -56
430 -100 21 -23 30 -128 34 -379 3 -217 21 -283 102 -375 56 -63 101 -87 283
-151 185 -64 402 -157 541 -230 135 -72 160 -78 254 -60 139 27 186 59 457
308 64 60 132 116 150 124 30 15 35 14 78 -7 119 -57 366 -264 513 -428 132
-149 246 -306 273 -376 14 -39 -6 -68 -158 -233 -149 -162 -226 -253 -249
-295 -14 -26 -18 -57 -18 -153 0 -117 1 -122 36 -200 155 -342 192 -427 238
-552 93 -257 120 -299 232 -356 75 -37 132 -45 389 -50 237 -5 275 -12 313
-55 44 -49 77 -294 77 -571 0 -355 -46 -591 -122 -629 -18 -8 -104 -14 -270
-18 -268 -6 -306 -11 -391 -56 -114 -61 -140 -103 -257 -420 -27 -75 -82 -205
-121 -290 -130 -282 -123 -261 -124 -378 0 -77 5 -117 18 -151 20 -54 97 -149
265 -330 144 -155 158 -176 142 -223 -56 -170 -571 -692 -784 -795 -45 -22
-50 -23 -79 -9 -18 9 -87 67 -155 129 -190 176 -301 267 -341 281 -21 8 -81
13 -141 13 -118 0 -102 5 -430 -143 -85 -38 -226 -95 -312 -126 -87 -30 -180
-67 -206 -80 -100 -51 -186 -182 -196 -300 -3 -33 -8 -154 -10 -267 -6 -229
-15 -272 -65 -302 -68 -40 -305 -69 -566 -69 -357 1 -595 49 -625 128 -5 12
-12 128 -15 256 -7 259 -15 320 -47 387 -50 103 -122 155 -303 221 -176 64
-269 102 -448 184 -212 98 -268 116 -353 116 -150 0 -180 -17 -422 -243 -181
-168 -226 -201 -262 -192 -93 23 -376 252 -547 443 -111 125 -223 275 -258
346 l-27 56 25 39 c14 21 74 91 134 156 242 262 271 307 280 418 9 106 -12
193 -77 324 -73 149 -137 299 -184 433 -88 250 -101 277 -172 339 -96 84 -154
99 -414 102 -270 3 -318 10 -352 48 -34 38 -55 107 -72 246 -34 262 -29 497
14 753 37 216 44 220 331 227 347 9 392 18 484 99 63 54 91 106 155 282 70
191 99 260 199 474 l86 185 0 105 c0 160 -24 200 -284 481 -68 74 -130 148
-139 166 -14 30 -14 34 13 87 69 136 304 407 483 557 103 86 268 201 315 218
40 15 62 1 206 -131 303 -278 316 -287 446 -296 108 -6 147 4 325 87 152 71
307 135 475 197 125 46 224 95 268 134 38 33 90 124 106 185 5 22 11 129 12
238 1 108 5 227 8 263 7 61 11 70 47 103 38 36 44 38 165 55 254 35 400 42
594 26z"/>
<path d="M1988 6222 c-31 -18 -58 -67 -58 -104 0 -30 33 -83 62 -100 17 -9 98
-14 302 -18 l279 -5 109 -375 c60 -206 156 -537 213 -735 101 -351 256 -884
375 -1294 64 -219 77 -244 139 -261 55 -15 2346 -12 2391 3 41 14 80 68 80
109 0 38 -24 84 -53 100 -17 10 -261 14 -1161 18 l-1139 5 -48 165 c-26 91
-48 171 -49 178 0 9 236 12 1145 12 1258 0 1187 -3 1220 60 17 33 20 83 5 110
-7 14 40 164 205 649 209 617 215 631 254 669 37 35 41 44 41 86 0 41 -5 53
-34 82 l-34 34 -1646 0 -1646 0 -10 23 c-5 12 -39 126 -75 252 -85 299 -91
313 -129 336 -29 18 -54 19 -371 19 -302 -1 -343 -2 -367 -18z m1642 -859 c0
-13 49 -395 56 -435 l6 -38 -274 0 -275 0 -66 229 c-37 126 -67 234 -67 240 0
8 97 11 310 11 171 0 310 -3 310 -7z m738 -230 l-3 -238 -217 -3 c-120 -1
-218 0 -218 3 0 6 -48 389 -55 438 l-5 37 250 0 250 0 -2 -237z m731 205 c0
-18 -13 -125 -27 -238 l-27 -205 -217 -3 -218 -2 0 240 0 240 245 0 245 0 -1
-32z m860 20 c0 -7 -35 -114 -78 -238 l-78 -225 -256 -3 c-240 -2 -257 -1
-257 15 0 23 51 434 56 451 3 9 73 12 309 12 238 0 305 -3 304 -12z m-2234
-740 c8 -48 55 -426 55 -443 0 -13 -31 -15 -212 -15 l-213 0 -67 233 c-38 129
-68 239 -68 245 0 9 65 12 250 12 l249 0 6 -32z m645 -213 l0 -245 -175 0
c-160 0 -175 2 -175 18 0 19 -47 390 -55 440 l-6 32 206 0 205 0 0 -245z m640
227 c0 -19 -46 -382 -55 -439 l-6 -33 -169 0 -170 0 0 245 0 245 200 0 c187 0
200 -1 200 -18z m708 6 c-3 -7 -40 -118 -83 -245 l-79 -233 -182 0 -181 0 3
23 c2 12 15 117 30 232 14 116 27 216 29 223 3 9 59 12 236 12 181 0 230 -3
227 -12z"/>
<path d="M3744 3140 c-75 -30 -138 -89 -176 -168 -29 -59 -33 -76 -33 -147 1
-95 26 -156 90 -221 64 -64 125 -88 228 -92 78 -4 93 -1 141 22 99 49 182 167
190 272 7 94 -35 198 -108 267 -82 77 -231 107 -332 67z"/>
<path d="M5223 3140 c-164 -65 -254 -262 -193 -423 26 -69 94 -143 165 -177
38 -19 70 -26 136 -28 77 -3 92 -1 142 23 148 70 225 254 170 409 -25 68 -108
157 -175 186 -75 33 -177 37 -245 10z"/>
</g>
</svg>
