<svg xmlns="http://www.w3.org/2000/svg" x="0px" y="0px"
width="48" height="48"
viewBox="0 0 172 172"
style=" fill:#000000;"><g fill="none" fill-rule="nonzero" stroke="none" stroke-width="1" stroke-linecap="butt" stroke-linejoin="miter" stroke-miterlimit="10" stroke-dasharray="" stroke-dashoffset="0" font-family="none" font-weight="none" font-size="none" text-anchor="none" style="mix-blend-mode: normal"><path d="M0,172v-172h172v172z" fill="none"></path><g fill="#000000"><path d="M35.83333,35.83333c-12.05433,0 -21.5,9.4385 -21.5,21.5c0,12.0615 9.44567,21.5 21.5,21.5c12.05433,0 21.5,-9.4385 21.5,-21.5c0,-12.0615 -9.44567,-21.5 -21.5,-21.5zM86,35.83333c-12.05433,0 -21.5,9.4385 -21.5,21.5c0,12.0615 9.44567,21.5 21.5,21.5c12.05433,0 21.5,-9.4385 21.5,-21.5c0,-12.0615 -9.44567,-21.5 -21.5,-21.5zM136.16667,35.83333c-12.05433,0 -21.5,9.4385 -21.5,21.5c0,12.0615 9.44567,21.5 21.5,21.5c12.05433,0 21.5,-9.4385 21.5,-21.5c0,-12.0615 -9.44567,-21.5 -21.5,-21.5zM86,93.16667c-25.31983,0 -43,9.48687 -43,23.06771v12.76563c0,3.956 3.21067,7.16667 7.16667,7.16667h71.66667c3.956,0 7.16667,-3.21067 7.16667,-7.16667v-12.76562c0,-13.58083 -17.68017,-23.06771 -43,-23.06771zM132.7793,93.25065c6.73667,6.13467 10.55403,13.94656 10.55403,22.98372v12.76563c0,3.956 3.21067,7.16667 7.16667,7.16667h14.33333c3.956,0 7.16667,-3.21067 7.16667,-7.16667v-12.76562c0,-12.89283 -15.95053,-22.08072 -39.2207,-22.98372zM39.2207,93.26465c-23.27017,0.89583 -39.2207,10.07689 -39.2207,22.96973v12.76563c0,3.956 3.21067,7.16667 7.16667,7.16667h14.33333c3.956,0 7.16667,-3.21067 7.16667,-7.16667v-12.76562c0,-9.03 3.81737,-16.84223 10.55404,-22.96973z"></path></g></g></svg>